<?xml version="1.0" standalone="no"?>
<!DOCTYPE svg PUBLIC "-//W3C//DTD SVG 20010904//EN"
 "http://www.w3.org/TR/2001/REC-SVG-20010904/DTD/svg10.dtd">
<svg version="1.0" xmlns="http://www.w3.org/2000/svg"
 width="672.000000pt" height="441.000000pt" viewBox="0 0 672.000000 441.000000"
 preserveAspectRatio="xMidYMid meet">

<g transform="translate(0.000000,441.000000) scale(0.100000,-0.100000)"
fill="#000000" stroke="none">
<path d="M1345 2985 l-25 -24 0 -760 c0 -418 3 -767 6 -776 17 -44 27 -45 688
-45 437 0 632 3 649 11 14 6 30 22 36 36 8 17 11 247 11 779 l0 755 -25 24
-24 25 -646 0 -646 0 -24 -25z m1136 -152 c12 -31 34 -361 25 -370 -10 -10
-119 13 -185 40 -93 38 -165 85 -252 165 -44 39 -86 72 -95 72 -8 0 -25 -11
-38 -23 l-24 -24 5 -384 c3 -211 9 -402 15 -424 34 -139 318 -232 318 -105 0
37 -22 53 -94 67 -136 28 -149 130 -24 194 57 29 151 48 272 56 l109 6 -7
-194 c-8 -193 -19 -336 -29 -345 -26 -27 -878 -32 -924 -7 -17 10 -23 26 -29
80 -8 75 2 1011 13 1135 l6 78 176 3 c97 1 305 4 464 5 l287 2 11 -27z"/>
<path d="M3117 2496 c-136 -50 -213 -171 -205 -319 6 -120 70 -216 176 -265
205 -94 412 32 412 250 l0 58 -130 0 -130 0 0 -55 0 -55 70 0 c39 0 70 -2 70
-5 0 -25 -38 -70 -73 -86 -170 -77 -330 113 -236 281 44 79 150 111 245 75
l46 -17 31 38 c18 21 32 43 32 48 0 5 -22 21 -49 35 -60 31 -197 40 -259 17z"/>
<path d="M3880 2505 c0 -3 27 -57 61 -120 l60 -114 -38 -19 c-47 -24 -68 -47
-88 -95 -32 -76 -6 -180 56 -226 102 -76 264 -66 332 20 23 30 27 31 27 13 0
-56 81 -98 143 -75 25 10 27 15 27 66 0 30 -1 55 -3 55 -1 0 -17 -4 -35 -9
-49 -14 -62 5 -62 90 l0 69 35 0 35 0 0 55 0 56 -97 -3 -98 -3 -3 -100 c-1
-55 -8 -111 -15 -124 -33 -65 -182 -66 -217 -2 -38 71 22 141 121 141 l39 0
-50 100 c-27 55 -50 102 -50 104 0 3 51 7 113 8 l112 3 0 55 0 55 -202 3
c-112 1 -203 0 -203 -3z"/>
<path d="M4992 2493 c-59 -21 -145 -102 -170 -161 -61 -142 -22 -299 96 -389
112 -85 280 -81 378 9 60 55 84 112 84 198 l0 70 -130 0 -130 0 0 -55 0 -55
70 0 c80 0 86 -9 44 -59 -71 -85 -236 -54 -285 52 -21 47 -25 130 -8 174 35
93 157 138 261 96 l42 -17 38 45 38 44 -38 22 c-20 13 -53 28 -72 33 -51 14
-168 11 -218 -7z"/>
</g>
</svg>